<svg width="14" height="18" viewBox="0 0 14 18" fill="none" xmlns="http://www.w3.org/2000/svg">
<path d="M13.9922 12.7757C13.3996 12.5949 12.8672 12.173 12.4051 11.51C11.9431 10.8471 11.7121 10.0938 11.7121 9.27009C11.7121 8.5067 11.933 7.81362 12.365 7.19085C12.606 6.83929 12.9877 6.44754 13.51 6.00558C13.1685 5.5837 12.817 5.24219 12.4654 5.00112C11.8426 4.5692 11.1295 4.34821 10.3259 4.34821C9.83371 4.34821 9.25112 4.46875 8.58817 4.68973C7.92522 4.92076 7.44308 5.03125 7.15179 5.03125C6.92076 5.03125 6.45871 4.9308 5.76562 4.72991C5.0625 4.52902 4.47991 4.42857 3.98772 4.42857C2.83259 4.42857 1.88839 4.91071 1.13504 5.875C0.381696 6.84933 0 8.09487 0 9.6317C0 11.279 0.502232 12.9565 1.47656 14.6842C2.47098 16.4118 3.4654 17.2857 4.5 17.2857C4.83147 17.2857 5.27344 17.1752 5.82589 16.9442C6.3683 16.7232 6.85045 16.6127 7.25223 16.6127C7.66406 16.6127 8.17634 16.7132 8.76897 16.9342C9.37165 17.1451 9.83371 17.2556 10.1752 17.2556C11.029 17.2556 11.8929 16.6027 12.7567 15.2868C13.3393 14.4129 13.7411 13.5692 13.9922 12.7757ZM10.2154 0.993303C10.2154 0.922991 10.2054 0.862723 10.2054 0.79241C10.1953 0.732142 10.1752 0.66183 10.1551 0.571427C8.98996 0.842633 8.14621 1.33482 7.64397 2.05804C7.14174 2.78125 6.88058 3.64509 6.86049 4.63951C7.33259 4.59933 7.67411 4.53906 7.90513 4.46875C8.26674 4.34821 8.62835 4.10714 8.98996 3.74554C9.41183 3.32366 9.72321 2.86161 9.92411 2.35937C10.115 1.86719 10.2154 1.40513 10.2154 0.993303Z" fill="#151439" fill-opacity="0.4"/>
</svg>
