<svg width="18" height="19" viewBox="0 0 18 19" fill="none" xmlns="http://www.w3.org/2000/svg">
<path d="M11.5513 8.22545C11.5513 7.4721 10.9487 6.86942 10.1953 6.86942H7.65402V9.57143H10.1953C10.9487 9.57143 11.5513 8.96875 11.5513 8.22545ZM13.3493 8.22545C13.3493 9.96317 11.9431 11.3694 10.1953 11.3694H7.65402V14.0714H5.84598V5.07143H10.1953C11.9431 5.07143 13.3493 6.47768 13.3493 8.22545ZM18 9.57143C18 4.59933 13.9721 0.571427 9 0.571427C4.0279 0.571427 0 4.59933 0 9.57143C0 14.5435 4.0279 18.5714 9 18.5714C13.9721 18.5714 18 14.5435 18 9.57143Z" fill="#151439" fill-opacity="0.4"/>
</svg>
